<?xml version="1.0" standalone="no"?>
<!DOCTYPE svg PUBLIC "-//W3C//DTD SVG 20010904//EN"
 "http://www.w3.org/TR/2001/REC-SVG-20010904/DTD/svg10.dtd">
<svg version="1.0" xmlns="http://www.w3.org/2000/svg"
 width="500.000000pt" height="500.000000pt" viewBox="0 0 500.000000 500.000000"
 preserveAspectRatio="xMidYMid meet">
<metadata>
Created by potrace 1.14, written by Peter Selinger 2001-2017
</metadata>
<g transform="translate(0.000000,500.000000) scale(0.100000,-0.100000)"
fill="#000000" stroke="none">
<path d="M3693 3502 c-6 -4 -39 -7 -72 -7 -34 0 -61 -3 -61 -6 0 -3 -14 -5
-30 -4 -17 1 -33 -2 -36 -6 -2 -4 -13 -6 -24 -4 -11 2 -20 0 -20 -4 0 -5 -12
-8 -27 -8 -15 0 -29 -5 -31 -11 -1 -5 -12 -8 -22 -5 -12 3 -20 0 -20 -6 0 -7
-4 -10 -8 -7 -5 3 -20 -1 -35 -9 -14 -7 -28 -11 -31 -7 -3 3 -6 0 -6 -6 0 -7
-3 -11 -7 -11 -25 4 -43 -2 -37 -13 5 -8 2 -9 -10 -5 -10 4 -19 1 -22 -8 -3
-7 -12 -11 -20 -8 -8 3 -14 0 -14 -7 0 -6 -4 -9 -9 -6 -5 3 -14 -1 -21 -9 -7
-8 -19 -15 -27 -15 -8 0 -11 -4 -8 -10 3 -6 -1 -7 -9 -4 -9 3 -16 1 -16 -6 0
-6 -4 -8 -10 -5 -5 3 -10 1 -10 -4 0 -6 -5 -11 -11 -11 -6 0 -17 -7 -26 -15
-8 -8 -19 -12 -25 -9 -6 4 -8 2 -5 -3 6 -9 -11 -22 -28 -22 -3 -1 -16 -12 -29
-26 -13 -14 -30 -24 -37 -23 -8 2 -13 -3 -12 -9 2 -7 -1 -13 -6 -13 -22 0
-137 -113 -121 -118 6 -2 18 6 27 18 8 12 21 19 28 16 7 -2 16 2 19 10 3 8 10
14 16 14 6 0 16 5 23 10 29 24 103 70 115 70 6 0 12 4 12 10 0 5 7 6 17 3 11
-4 14 -3 9 5 -6 11 5 17 27 13 4 0 7 3 7 7 0 9 100 48 113 44 4 -1 7 2 7 8 0
5 7 10 15 10 8 0 15 4 15 9 0 6 9 8 20 6 11 -2 20 1 20 6 0 6 4 8 9 4 5 -3 12
-1 16 5 4 6 11 8 16 5 5 -4 9 -1 9 5 0 6 5 8 10 5 6 -3 16 -3 23 2 13 8 29 12
69 16 16 1 28 5 28 9 0 6 19 7 150 9 68 2 160 -5 160 -11 0 -3 11 -7 26 -8 14
-1 33 -6 43 -12 10 -5 21 -6 25 -3 3 3 6 2 6 -4 0 -6 8 -13 18 -17 44 -14 141
-104 135 -123 -3 -7 0 -13 7 -13 6 0 8 -4 5 -10 -3 -5 -1 -10 5 -10 6 0 9 -4
5 -9 -3 -5 -1 -12 4 -16 5 -3 8 -14 6 -25 -2 -12 0 -18 6 -14 6 3 10 0 8 -7
-3 -27 1 -40 11 -34 6 4 8 11 5 16 -4 5 -1 9 5 9 6 0 8 5 5 10 -4 6 -3 16 2
23 5 7 9 31 8 54 0 24 3 43 7 43 4 0 3 12 -1 28 -4 15 -6 33 -4 40 3 6 0 12
-6 12 -6 0 -11 5 -11 11 0 5 4 8 9 5 5 -4 4 5 -2 18 -7 13 -15 22 -19 20 -5
-3 -8 2 -8 10 0 22 -64 83 -84 80 -9 -1 -14 2 -10 7 3 5 -2 9 -10 9 -9 0 -16
5 -16 11 0 5 -4 8 -9 4 -5 -3 -17 2 -25 11 -9 8 -16 10 -16 4 0 -6 -12 -4 -31
6 -23 11 -29 12 -23 2 6 -10 5 -11 -7 -1 -8 6 -30 11 -49 9 -19 -2 -37 1 -40
5 -3 4 -11 5 -17 1z"/>
<path d="M3530 3292 c0 -6 -13 -9 -30 -7 -25 3 -30 0 -30 -17 0 -15 5 -19 20
-15 11 3 20 0 20 -6 0 -6 3 -7 7 -4 3 4 13 1 21 -6 13 -10 14 -9 7 3 -5 9 0 8
13 -4 12 -11 22 -15 22 -10 0 5 5 1 11 -9 6 -9 15 -14 21 -11 7 5 9 2 5 -9 -4
-12 -1 -15 14 -12 11 2 17 0 14 -6 -4 -5 -1 -9 5 -9 6 0 9 -4 6 -9 -3 -5 1
-12 10 -15 8 -3 12 -10 9 -16 -3 -5 -1 -10 4 -10 6 0 11 -6 11 -14 0 -8 4 -16
9 -18 12 -4 18 -99 8 -115 -6 -9 -3 -11 10 -6 15 6 16 4 5 -9 -7 -8 -10 -23
-6 -32 3 -9 2 -16 -2 -16 -5 0 -10 -15 -10 -32 -2 -44 -14 -102 -22 -108 -4
-3 -9 -16 -11 -30 -1 -14 -6 -27 -10 -30 -3 -3 -8 -12 -10 -20 -2 -8 -4 -19
-6 -25 -7 -29 -18 -44 -29 -38 -6 4 -5 -1 3 -10 10 -13 10 -17 1 -17 -7 0 -10
-6 -7 -13 6 -15 -27 -59 -37 -49 -4 3 -4 -2 0 -12 6 -15 4 -17 -6 -11 -8 5
-11 4 -7 -2 4 -6 -3 -22 -14 -37 -11 -14 -17 -26 -12 -26 4 0 0 -7 -11 -15
-10 -7 -15 -18 -11 -24 3 -6 -1 -11 -9 -11 -10 0 -13 -6 -9 -17 4 -11 3 -14
-5 -9 -11 6 -17 -5 -13 -26 0 -5 -6 -8 -14 -8 -8 0 -15 -7 -15 -15 0 -8 -4
-15 -10 -15 -5 0 -6 -7 -3 -17 4 -9 2 -14 -3 -11 -5 3 -15 0 -22 -8 -7 -8 -10
-14 -6 -14 4 0 -5 -11 -19 -24 -14 -13 -23 -26 -21 -29 3 -3 -4 -11 -16 -17
-12 -6 -19 -14 -16 -17 3 -3 -11 -20 -30 -38 -18 -18 -34 -38 -34 -44 0 -7 -3
-10 -7 -8 -10 5 -43 -30 -35 -37 3 -3 0 -6 -7 -6 -6 0 -31 -21 -55 -46 -25
-25 -49 -43 -55 -40 -6 4 -8 -2 -6 -14 2 -11 0 -18 -5 -15 -5 3 -13 -3 -19
-12 -6 -10 -11 -14 -11 -10 0 4 -12 -4 -27 -18 -15 -14 -31 -25 -36 -25 -4 0
-5 -5 -1 -12 4 -7 3 -8 -4 -4 -6 4 -19 -2 -29 -13 -9 -11 -20 -18 -25 -15 -4
3 -8 0 -8 -6 0 -6 -5 -8 -10 -5 -6 4 -9 1 -8 -6 2 -7 -1 -13 -7 -14 -5 0 -25
-10 -42 -23 -18 -13 -33 -20 -33 -15 0 4 -5 0 -11 -10 -6 -9 -14 -15 -18 -13
-4 3 -17 -3 -27 -13 -11 -10 -32 -21 -47 -25 -18 -4 -25 -11 -21 -19 4 -7 4
-9 -1 -5 -4 4 -20 1 -35 -7 -15 -8 -30 -11 -34 -8 -3 4 -6 1 -6 -6 0 -8 -6
-11 -16 -7 -10 4 -13 2 -8 -6 5 -8 2 -9 -9 -5 -10 3 -17 2 -17 -3 0 -6 -7 -10
-15 -10 -8 0 -15 -6 -15 -12 0 -10 -3 -9 -9 1 -6 9 -11 10 -15 2 -4 -6 -12 -9
-17 -6 -5 4 -9 1 -9 -4 0 -6 -3 -10 -7 -10 -23 4 -64 -2 -60 -8 3 -5 -11 -8
-31 -7 -21 0 -45 -6 -55 -15 -16 -14 -17 -13 -11 3 6 16 4 17 -12 8 -28 -15
-36 -15 -45 0 -7 11 -9 11 -9 -1 0 -11 -3 -11 -17 0 -14 12 -16 12 -8 0 6 -11
5 -12 -6 -5 -8 5 -25 10 -39 12 -13 2 -30 7 -36 13 -6 5 -14 6 -17 2 -4 -3 -7
-1 -7 6 0 7 -4 10 -8 7 -5 -3 -14 4 -22 14 -8 10 -17 17 -22 14 -4 -3 -13 6
-20 20 -6 14 -16 26 -21 26 -5 0 -7 9 -4 20 3 11 0 18 -7 17 -6 -1 -10 8 -9
21 2 13 -1 21 -7 17 -6 -3 -10 1 -10 10 0 10 5 13 13 9 9 -6 9 -4 1 7 -13 16
-24 69 -15 69 3 0 6 16 6 35 0 19 -3 35 -8 35 -5 0 -4 7 3 15 6 8 9 19 5 25
-3 5 -2 10 2 10 5 0 9 12 8 28 0 15 6 37 13 50 8 12 11 22 8 22 -4 0 -2 8 3
19 12 22 3 35 -15 20 -7 -6 -10 -18 -7 -26 4 -11 2 -14 -5 -9 -16 9 -15 -7 0
-22 9 -9 7 -11 -9 -8 -16 3 -20 -1 -19 -17 1 -13 -4 -21 -12 -19 -10 2 -10 -2
-2 -18 8 -16 8 -22 -4 -26 -8 -3 -13 -14 -11 -26 3 -16 2 -18 -10 -8 -12 10
-13 8 -10 -10 2 -11 -1 -33 -6 -48 -14 -36 -21 -63 -22 -89 -1 -13 -4 -23 -7
-23 -7 0 -8 -3 -12 -60 -2 -19 -7 -41 -11 -47 -5 -8 -3 -13 4 -13 8 0 9 -4 0
-13 -8 -10 -7 -17 2 -27 7 -8 7 -10 1 -7 -7 4 -11 -3 -11 -18 0 -14 2 -23 6
-21 3 2 7 -9 8 -25 1 -18 -2 -27 -8 -23 -7 4 -7 0 -1 -12 6 -11 19 -39 30 -64
22 -50 72 -110 91 -110 7 0 9 -5 5 -12 -5 -7 0 -9 14 -6 13 4 20 2 19 -5 -1
-6 8 -13 21 -15 12 -2 22 -7 22 -11 0 -3 8 -7 18 -8 49 -4 68 -7 80 -16 8 -6
12 -5 12 3 0 10 3 10 14 1 10 -9 20 -9 33 -2 11 5 24 6 31 2 13 -8 50 -7 73 3
8 4 35 8 60 10 24 1 58 10 76 19 18 10 36 16 40 15 4 -1 17 3 28 9 11 6 24 11
28 11 18 1 67 28 67 37 0 5 5 3 10 -5 6 -10 10 -11 10 -2 0 6 9 12 20 12 11 0
23 6 26 14 3 8 18 18 34 21 16 3 31 12 34 20 2 7 16 12 30 11 14 -2 24 1 23 7
-1 5 14 18 33 29 19 11 38 25 41 30 3 5 10 10 15 10 25 2 43 11 39 18 -3 5 4
11 15 15 11 3 20 11 20 16 0 6 4 8 8 5 5 -3 14 4 22 14 8 10 17 17 22 14 4 -3
8 -1 8 4 0 5 9 12 21 15 12 3 18 10 14 16 -5 10 -1 12 20 11 3 0 17 11 31 25
14 14 29 25 34 25 6 0 10 7 10 16 0 8 4 13 9 10 5 -3 20 6 35 21 14 14 26 23
26 19 0 -4 9 -2 20 4 12 6 20 7 20 1 0 -10 25 -9 36 2 10 10 26 9 20 -1 -2 -4
4 -8 15 -8 10 0 19 3 19 6 0 3 11 5 25 5 14 0 25 -4 25 -8 0 -4 9 -3 20 3 13
7 20 7 20 1 0 -6 7 -8 15 -5 8 4 12 11 8 17 -4 6 0 8 11 4 9 -4 15 -3 11 2 -3
6 0 13 7 18 7 4 27 25 45 45 17 20 34 34 37 31 3 -4 6 -1 6 5 0 7 27 38 59 69
33 31 58 60 55 65 -3 4 2 8 11 8 9 0 13 4 10 10 -3 5 -1 10 5 10 6 0 20 9 32
20 19 18 20 20 4 26 -9 4 -19 4 -22 1 -4 -3 -17 -2 -30 3 -13 5 -24 6 -24 2 0
-6 -40 -6 -136 -2 -15 0 -14 30 2 30 6 0 19 16 28 35 9 19 21 35 27 35 6 0 7
5 4 10 -3 6 -1 10 5 10 6 0 9 4 6 9 -3 5 1 12 10 15 8 3 13 10 10 15 -3 5 1
11 9 15 8 3 15 13 15 21 0 10 5 13 12 9 8 -5 9 -2 5 9 -4 10 -2 17 4 17 6 0 8
7 5 16 -3 8 -2 13 3 9 5 -3 15 8 22 24 7 16 16 28 19 26 4 -2 7 2 7 9 0 20 33
86 43 86 4 0 7 11 6 25 -2 13 1 22 5 19 8 -5 13 10 10 29 0 4 3 7 9 7 5 0 10
9 10 20 0 11 4 20 9 20 5 0 8 8 7 17 -2 10 3 24 11 31 7 8 11 17 8 22 -3 5 -1
11 4 15 6 3 8 12 5 19 -3 8 -1 17 5 21 8 4 8 12 1 25 -8 16 -8 18 4 14 11 -4
14 0 11 15 -2 11 1 23 7 27 6 4 5 10 -3 15 -10 6 -10 9 -2 9 7 0 10 7 7 15 -4
9 0 15 7 15 11 0 11 3 -1 10 -8 5 -10 10 -5 10 8 0 12 79 5 100 -1 3 -2 17 -2
33 -1 15 -5 27 -10 27 -6 0 -8 6 -5 14 3 7 -2 24 -10 37 -10 13 -11 19 -4 14
8 -4 7 2 -3 17 -9 14 -13 28 -9 32 5 4 1 6 -7 4 -8 -1 -14 3 -12 10 1 6 -3 12
-9 12 -5 0 -7 5 -4 10 3 6 -1 10 -10 10 -9 0 -13 4 -10 10 3 6 -1 7 -9 4 -11
-4 -16 0 -16 10 0 9 -7 16 -15 16 -8 0 -15 5 -15 11 0 6 -7 9 -15 6 -8 -4 -17
-1 -21 5 -5 7 -2 8 7 3 8 -5 11 -4 6 1 -9 10 -14 11 -53 13 -14 0 -23 5 -20 9
3 5 -24 9 -58 9 -35 0 -69 4 -75 7 -6 4 -11 2 -11 -5 0 -8 -4 -8 -15 1 -10 8
-15 9 -15 2z"/>
<path d="M3442 3276 c7 -8 15 -12 17 -11 5 6 -10 25 -20 25 -5 0 -4 -6 3 -14z"/>
<path d="M1308 2938 c-31 -31 -59 -53 -63 -50 -4 4 -6 3 -4 -3 3 -14 -12 -46
-20 -41 -3 2 -12 -2 -19 -10 -7 -8 -9 -14 -5 -14 4 0 -7 -10 -24 -22 -16 -13
-31 -26 -32 -30 -2 -14 -39 -46 -45 -40 -3 3 -6 -5 -6 -17 0 -12 -3 -20 -7
-18 -5 3 -14 -1 -21 -9 -13 -15 -6 -19 27 -15 7 2 10 -2 6 -8 -4 -8 2 -8 20
-1 32 12 38 12 31 2 -6 -10 30 -9 40 1 12 12 26 8 18 -5 -4 -7 -3 -8 4 -4 18
11 52 16 52 7 0 -9 37 -8 46 2 4 3 15 2 25 -3 10 -6 20 -6 23 -2 6 11 36 9 55
-3 10 -5 12 -4 7 3 -4 7 -2 12 3 12 6 0 11 -5 11 -12 0 -9 3 -9 12 0 8 8 15 8
24 1 8 -7 14 -7 19 1 5 8 11 7 23 -2 12 -10 14 -10 8 0 -8 13 6 17 18 5 3 -4
15 -7 26 -8 16 -1 18 1 7 13 -10 13 -9 14 9 4 12 -6 24 -8 28 -5 3 3 6 1 6 -6
0 -7 4 -9 10 -6 6 4 7 -2 1 -17 -4 -13 -7 -31 -6 -40 2 -10 -2 -18 -8 -18 -8
0 -7 -3 2 -9 9 -6 10 -11 2 -15 -6 -4 -9 -12 -6 -17 4 -5 0 -9 -7 -9 -10 0
-10 -2 1 -9 9 -6 10 -11 3 -15 -6 -4 -8 -14 -5 -23 4 -9 2 -14 -3 -11 -5 4 -9
-19 -9 -52 0 -43 -3 -56 -12 -49 -8 8 -10 2 -7 -21 3 -18 0 -38 -8 -48 -11
-13 -11 -14 1 -7 11 6 12 5 5 -6 -5 -8 -9 -21 -10 -29 0 -8 -4 -37 -9 -65 -4
-27 -8 -52 -7 -55 0 -3 -4 -10 -9 -17 -7 -7 -5 -13 3 -16 9 -4 10 -6 1 -6 -7
-1 -10 -8 -6 -18 4 -9 2 -14 -3 -10 -6 3 -10 -14 -9 -43 0 -27 -3 -46 -7 -44
-4 3 -7 -5 -7 -18 0 -13 -2 -36 -6 -53 -4 -16 -8 -39 -9 -51 -2 -11 -7 -27
-11 -34 -6 -9 -4 -11 4 -5 10 6 11 3 2 -13 -14 -26 -15 -75 -1 -67 6 3 10 1
10 -6 0 -8 4 -8 16 2 9 7 18 9 22 3 9 -12 35 -17 28 -6 -3 5 8 9 24 8 17 -1
30 -4 30 -8 0 -4 11 -3 25 2 16 6 25 6 25 -1 0 -6 7 -6 20 1 14 8 20 8 20 0 0
-7 7 -7 21 1 17 9 23 8 30 -2 6 -10 11 -11 19 -3 7 7 27 10 46 7 21 -3 34 0
34 7 0 6 4 9 9 6 5 -3 9 7 9 22 2 44 7 81 14 87 4 4 4 14 1 23 -4 8 -2 13 3
10 5 -3 10 13 11 35 3 65 14 131 25 145 7 8 7 12 -2 12 -9 0 -9 4 -3 13 6 6 9
20 8 30 -2 9 1 17 7 17 6 0 4 7 -3 17 -10 11 -10 14 -1 9 9 -5 12 3 13 31 1
21 1 41 0 46 0 4 3 7 8 7 4 0 7 16 5 35 -1 19 1 35 5 35 5 0 9 12 10 28 3 50
7 72 14 78 12 12 8 26 -5 18 -10 -6 -10 -5 -1 7 6 8 13 28 16 46 3 17 8 37 13
44 5 8 3 9 -6 4 -10 -6 -11 -4 -4 6 4 8 9 20 11 28 1 8 5 26 9 40 4 14 7 28 6
31 0 3 8 6 18 6 10 0 17 -3 15 -6 -5 -8 50 -4 65 5 9 6 11 4 5 -6 -8 -12 -6
-12 8 0 14 11 17 11 17 0 0 -12 2 -12 9 0 7 11 10 11 15 0 5 -11 7 -11 12 -2
3 8 12 10 22 5 21 -10 43 -9 61 2 8 5 17 3 22 -5 8 -12 11 -12 19 1 7 11 10
11 10 2 0 -10 5 -10 21 -1 17 9 23 8 30 -2 6 -9 12 -10 17 -4 10 14 42 15 42
1 0 -6 5 -4 10 4 7 11 10 11 10 2 0 -7 20 7 45 32 25 26 45 51 45 56 0 6 7 10
15 10 8 0 15 7 15 15 0 8 5 15 10 15 7 0 8 -15 4 -42 -4 -24 -8 -62 -8 -85 -1
-23 -5 -41 -10 -40 -4 1 -10 -20 -12 -47 -2 -28 -10 -53 -17 -58 -9 -6 -9 -8
0 -8 9 0 10 -7 4 -22 -4 -13 -6 -29 -3 -37 2 -8 0 -11 -5 -8 -5 4 -10 -10 -10
-31 -1 -20 -4 -50 -8 -67 -4 -16 -8 -41 -10 -55 -2 -14 -5 -25 -6 -25 -2 0 -6
-44 -8 -88 -1 -10 -5 -16 -9 -13 -5 3 -8 -13 -7 -34 1 -23 -3 -40 -9 -40 -6 0
-4 -5 4 -10 12 -7 12 -10 1 -10 -8 0 -11 -6 -7 -16 3 -8 2 -13 -2 -10 -5 3 -9
-12 -10 -32 -2 -42 -9 -105 -12 -112 -1 -3 -2 -8 -1 -12 0 -5 -3 -8 -7 -8 -4
0 -7 -12 -6 -27 1 -16 -4 -34 -10 -42 -8 -11 -8 -13 2 -7 6 4 12 2 12 -3 0 -6
-4 -11 -9 -11 -5 0 -9 -15 -9 -32 1 -18 3 -27 6 -20 3 9 7 10 17 2 9 -8 15 -8
20 0 4 7 13 7 27 -1 15 -8 19 -8 14 0 -4 6 -3 11 3 11 5 0 12 -4 16 -9 3 -6
18 -6 37 0 20 5 36 5 44 -2 8 -7 14 -7 19 1 4 7 13 7 27 -1 16 -8 19 -8 13 1
-5 9 -1 10 16 5 33 -10 31 -10 61 5 15 7 25 17 22 21 -3 5 2 9 10 9 9 0 16 5
16 12 0 6 3 9 6 5 5 -5 33 15 69 50 7 7 15 9 19 6 3 -4 6 1 6 10 0 10 4 16 8
15 10 -3 49 24 101 69 20 18 41 33 47 33 7 0 15 7 18 16 4 9 9 14 12 11 3 -3
19 7 34 23 15 16 31 26 34 23 3 -4 6 -1 6 5 0 9 -38 11 -137 10 -76 -2 -136 1
-135 6 2 5 -2 13 -10 17 -7 5 -8 9 -2 9 6 0 10 17 10 39 -1 22 2 37 6 35 9 -6
11 6 10 49 0 15 3 25 7 23 4 -3 7 12 6 32 -1 20 2 42 8 49 5 7 6 17 2 23 -3 5
-2 10 2 10 5 0 8 12 7 28 -1 15 2 34 7 43 4 9 9 34 10 55 1 21 5 43 7 48 3 5
7 28 8 49 2 22 7 43 11 46 4 3 8 15 7 26 0 11 2 25 5 30 3 6 6 30 7 55 0 25 6
55 11 65 6 11 9 30 8 43 -1 12 1 22 5 22 4 0 6 17 6 38 -1 20 3 40 9 44 7 5 6
13 -1 25 -10 17 -59 18 -830 18 l-819 0 -57 -57z"/>
</g>
</svg>
