<?xml version="1.0" encoding="UTF-8"?>
<svg id="Layer_1" data-name="Layer 1" xmlns="http://www.w3.org/2000/svg" viewBox="0 0 32 24.07">
  <defs>
    <style>
      .cls-1 {
        fill: #eb3f3a;
      }

      .cls-1, .cls-2 {
        stroke-width: 0px;
      }

      .cls-2 {
        fill: #294b92;
      }
    </style>
  </defs>
  <polygon class="cls-2" points="22.13 15.23 17.69 18.63 14.49 18.63 16.19 8.83 16.48 7.18 14.93 8.83 10.18 8.83 9.07 15.23 8.48 18.63 4.39 18.63 4.98 15.23 6.1 8.83 0 8.83 3.2 5.43 20.77 5.43 19.07 15.23 22.13 15.23"/>
  <path class="cls-2" d="M32,3.03c0,1.09-.34,1.75-.34,1.75,0-1.45-1.4-3.62-4.7-3.62-4,0-8.9,3.51-9.05,3.62.16-.16,4.86-4.78,10.28-4.78,2.6,0,3.81,1.31,3.81,3.03Z"/>
  <path class="cls-1" d="M26.71,15.23h2.64l-3.2,3.4h-2.61c-.6.56-1.22,1.08-1.85,1.58h0c-2.94,2.31-6.12,3.87-8.78,3.87-3.58,0-3.95-2.74-3.95-3.31,0-.72.1-1.45.24-2.13.45-2.06,1.34-3.71,1.34-3.62,0,.4-.52,2.15-.2,3.62.25,1.15,1.03,2.13,2.99,2.13,1.85,0,3.91-.82,5.9-2.13,1.41-.93,2.78-2.1,4.01-3.4,2.95-3.11,5.12-6.93,5.12-9.8,0-2.42-2.58-2.98-2.79-2.98-.05,0,.21-.22,1.31-.22,1.01,0,3.47.46,3.86,3.2.03.24.05.49.05.77,0,2.67-1.65,5.99-4.08,9.03Z"/>
</svg>